<svg width="350" height="290" viewBox="0 0 350 290" fill="none" xmlns="http://www.w3.org/2000/svg">
<path d="M85.33 108.36C85.33 100.12 85.33 91.88 85.33 83.64C98.66 83.64 111.98 83.64 125.31 83.64C125.31 85.01 125.31 86.39 125.31 87.76C131.27 93.6 137.23 99.43 143.2 105.27C143.06 91.77 142.92 78.27 142.78 64.77H65.53C65.82 82.05 66.1 99.33 66.39 116.6C85.68 135.49 104.97 154.37 124.26 173.26C124.26 187 124.26 200.73 124.26 214.47C104.97 195.93 85.68 177.39 66.39 158.84C66.39 167.03 66.39 175.23 66.39 183.42L143.2 258.62C143.2 227.42 143.2 196.22 143.2 165.02C123.91 146.13 104.62 127.25 85.33 108.36Z" fill="white"/>
<path d="M201.47 64.77C201.68 130.76 201.9 196.76 202.11 262.75L221.06 244.2C221.09 184.39 221.12 124.58 221.15 64.77H201.47Z" fill="white"/>
<path d="M234.86 64.77C234.82 120.12 234.78 175.46 234.74 230.81L254.73 211.24C254.67 162.42 254.61 113.59 254.55 64.77H234.86Z" fill="white"/>
<path d="M287.96 64.77H268.28C268.32 109.13 268.36 153.49 268.4 197.85L287.35 179.29C287.56 141.12 287.76 102.94 287.96 64.77Z" fill="white"/>
<path d="M177.25 146.91C180.63 143.68 184.01 140.44 187.39 137.21C187.39 130.69 187.39 124.16 187.39 117.64C183.88 121.07 180.38 124.51 176.87 127.94C177 102.62 177.13 77.3 177.26 51.98C217.26 51.72 257.26 51.45 297.26 51.19L316.67 32.17C222.06 32.17 127.46 32.17 32.85 32.17L53.26 52.15C88.03 52.09 122.79 52.02 157.56 51.96C157.62 86.12 157.67 120.28 157.73 154.43C157.79 193.97 157.86 233.5 157.92 273.04L174.76 289.53L174.8 289.49C175.49 249.34 176.18 209.19 176.87 169.04C177 161.66 177.13 154.28 177.25 146.91Z" fill="white"/>
<path d="M19.96 19.54C123.16 19.54 226.37 19.54 329.57 19.54L349.52 0H0L19.96 19.54Z" fill="white"/>
</svg>
